<svg width="100" height="100" viewBox="0 0 100 100" fill="none" xmlns="http://www.w3.org/2000/svg">
  <path fill-rule="evenodd" clip-rule="evenodd" d="M50 10C72.091 10 90 27.909 90 50C90 72.091 72.091 90 50 90C27.909 90 10 72.091 10 50C10 27.909 27.909 10 50 10ZM50 24C35.641 24 24 35.641 24 50C24 64.359 35.641 76 50 76C64.359 76 76 64.359 76 50C76 35.641 64.359 24 50 24Z" fill="black"/>
  <circle cx="50" cy="14" r="5" fill="black"/>
  <circle cx="50" cy="86" r="5" fill="black"/>
  <circle cx="14" cy="50" r="5" fill="black"/>
  <circle cx="86" cy="50" r="5" fill="black"/>
</svg>
