<svg width="100" height="100" viewBox="0 0 100 100" fill="none" xmlns="http://www.w3.org/2000/svg">
  <path fill-rule="evenodd" clip-rule="evenodd" d="M18 28H82C90.836 28 98 35.164 98 44V56C98 64.836 90.836 72 82 72H18C9.164 72 2 64.836 2 56V44C2 35.164 9.164 28 18 28ZM35 50C35 45.582 38.582 42 43 42C47.418 42 51 45.582 51 50C51 54.418 47.418 58 43 58C38.582 58 35 54.418 35 50ZM57 50C57 45.582 60.582 42 65 42C69.418 42 73 45.582 73 50C73 54.418 69.418 58 65 58C60.582 58 57 54.418 57 50Z" fill="black"/>
</svg>
